<svg xmlns="http://www.w3.org/2000/svg" viewBox="0 0 1000 1000" role="img" aria-label="花丸">
  <g fill="none" stroke="#ff6b4f" stroke-linecap="round" stroke-linejoin="round">
    <ellipse cx="420" cy="240" rx="125" ry="175" stroke-width="54"/>
    <ellipse cx="675" cy="265" rx="125" ry="165" stroke-width="54" transform="rotate(-24 675 265)"/>
    <ellipse cx="782" cy="510" rx="118" ry="145" stroke-width="54" transform="rotate(88 782 510)"/>
    <ellipse cx="662" cy="730" rx="88" ry="112" stroke-width="40" transform="rotate(48 662 730)"/>
    <ellipse cx="505" cy="812" rx="96" ry="112" stroke-width="46"/>
    <ellipse cx="296" cy="714" rx="112" ry="128" stroke-width="48" transform="rotate(-40 296 714)"/>
    <ellipse cx="224" cy="480" rx="118" ry="150" stroke-width="54" transform="rotate(2 224 480)"/>
    <circle cx="508" cy="510" r="238" stroke-width="54"/>
    <path d="M514 438c-39 4-88 28-118 61-36 38-52 92-41 144 9 48 44 84 94 96 55 13 119-6 174-52 43-36 67-79 67-119 0-24-10-46-31-63-34-29-82-39-145-67z" stroke-width="40"/>
  </g>
</svg>
